/* XPM */
static char * menuitemprelight_xpm[] = {
"10 6 2 1",
" 	c None",
".	c #db7b4d",
"          ",
"          ",
"          ",
"          ",
"   ....   ",
"          "};
